<svg xmlns="http://www.w3.org/2000/svg" viewBox="0 0 98 118">
  <path fill="#ff3e00" d="M92 16A36 36 0 0 0 44 5L16 23C9 28 3 35 2 44c-1 7 0 15 3 21-2 4-4 8-4 12-2 9 0 18 5 25 11 16 33 21 48 11l28-18c7-4 13-12 14-21 1-7 0-15-3-21l5-12c1-9-1-18-6-25"/>
  <path fill="#fff" d="M41 104c-9 2-18-1-23-9-4-4-5-10-4-15l1-3v-1l1 1 11 5h1v1l1 5a7 7 0 0 0 9 2l28-18 2-4-1-4a7 7 0 0 0-9-2l-10 6-6 3c-9 2-18-1-23-9-3-4-5-10-4-15s4-10 9-13l27-17 6-3c9-2 18 1 23 9a20 20 0 0 1 3 18v1l-2-1-10-5h-1v-1l-1-4a7 7 0 0 0-9-2L32 46l-2 4 1 4a7 7 0 0 0 9 2l10-6 6-3c9-2 18 1 23 9 3 4 4 10 4 15-1 5-5 10-9 13l-27 17-6 3"/>
</svg>
