<svg xmlns="http://www.w3.org/2000/svg" viewBox="0 0 256 256">
  <path fill="#368fb9" d="M128 0a128 128 0 1 0 0 256 128 128 0 0 0 0-256"/>
  <path fill="#fff" d="M203 174c-8 2-12 4-21 10-16 10-32 15-32 15l-6 3-35 3c-6 0-10-2-11-5-4-7 4-11 4-11l-3-2c0-1-1-3-2-2-1 3-2 10-5 14-4 4-13 3-18 0-6-3 0-10 0-10s-3 2-5-2c-2-3-4-9-4-16 1-8 10-16 10-16s-2-12 3-24c5-11 18-20 18-20s-11-12-7-22l4-8 8-4c11-12 25-10 25-10s6-19 12-15c2 1 8 16 8 16s7-5 8-3c4 8 5 24 3 34-3 15-11 24-14 29-1 1 8 5 14 22 5 14 1 27 2 28 0 0 6 1 18-7 7-4 15-8 24-9 8 0 9 10 2 12Zm12-7c-1-7-7-12-14-12-12 0-21 6-28 10l-6 3c0-5 0-13-3-21-4-10-8-16-12-19a70 70 0 0 0 9-66c-1-2-3-4-5-4h-6c-5-11-7-12-8-13-3-1-6-2-9-1-4 2-8 6-11 13l-2 3c-6 0-16 3-24 12l-5 2c-5 2-7 6-9 12-3 9 0 18 4 24-5 4-11 10-15 18-4 10-4 19-4 24-3 4-9 11-9 18-1 11 3 18 5 21l1 2v4c1 4 3 7 6 8 7 4 16 5 23 2 3 3 7 5 15 5h1c2 0 29-1 37-3l7-4c5-1 19-6 33-15 9-6 12-7 19-9 7-1 11-7 10-14Z"/>
</svg>
